HIERARCHY
ROOT Hips
{
    OFFSET 0.000000 0.000000 0.000000
    CHANNELS 6 Xposition Yposition Zposition Zrotation Xrotation Yrotation
    JOINT Spine
    {
        OFFSET -0.000000 7.761268 0.000000
        CHANNELS 3 Zrotation Xrotation Yrotation
        JOINT Spine1
        {
            OFFSET -0.000000 24.785763 0.000000
            CHANNELS 3 Zrotation Xrotation Yrotation
            JOINT Neck
            {
                OFFSET -0.000000 24.683973 2.243998
                CHANNELS 3 Zrotation Xrotation Yrotation
                JOINT Head
                {
                    OFFSET -0.000000 13.250945 -1.892992
                    CHANNELS 3 Zrotation Xrotation Yrotation
                    End Site
                    {
                        OFFSET -0.000000 23.662401 0.000000
                    }
                }
            }
            JOINT LeftShoulder
            {
                OFFSET 3.794134 23.444212 -0.177979
                CHANNELS 3 Zrotation Xrotation Yrotation
                JOINT LeftArm
                {
                    OFFSET 9.211075 0.000000 0.000000
                    CHANNELS 3 Zrotation Xrotation Yrotation
                    JOINT LeftForeArm
                    {
                        OFFSET 34.352840 0.000000 0.000000
                        CHANNELS 3 Zrotation Xrotation Yrotation
                        JOINT LeftHand
                        {
                            OFFSET 25.460636 0.000000 0.000000
                            CHANNELS 3 Zrotation Xrotation Yrotation
                            End Site
                            {
                                OFFSET 14.197442 0.000000 0.000000
                            }
                        }
                    }
                }
            }
            JOINT RightShoulder
            {
                OFFSET -3.767389 23.444212 -0.177979
                CHANNELS 3 Zrotation Xrotation Yrotation
                JOINT RightArm
                {
                    OFFSET -9.211075 0.000000 0.000000
                    CHANNELS 3 Zrotation Xrotation Yrotation
                    JOINT RightForeArm
                    {
                        OFFSET -34.352840 0.000000 0.000000
                        CHANNELS 3 Zrotation Xrotation Yrotation
                        JOINT RightHand
                        {
                            OFFSET -25.460636 0.000000 0.000000
                            CHANNELS 3 Zrotation Xrotation Yrotation
                            End Site
                            {
                                OFFSET -14.197442 0.000000 0.000000
                            }
                        }
                    }
                }
            }
        }
    }
    JOINT LeftUpLeg
    {
        OFFSET 9.464960 0.000000 0.000000
        CHANNELS 3 Zrotation Xrotation Yrotation
        JOINT LeftLeg
        {
            OFFSET -0.000000 -36.073700 0.000000
            CHANNELS 3 Zrotation Xrotation Yrotation
            JOINT LeftFoot
            {
                OFFSET -0.000000 -40.808823 0.000000
                CHANNELS 3 Zrotation Xrotation Yrotation
                JOINT LeftToeBase
                {
                    OFFSET -0.000000 -6.152224 14.197442
                    CHANNELS 3 Zrotation Xrotation Yrotation
                    End Site
                    {
                        OFFSET -0.000000 0.000000 3.785984
                    }
                }
            }
        }
    }
    JOINT RightUpLeg
    {
        OFFSET -9.464960 0.000000 0.000000
        CHANNELS 3 Zrotation Xrotation Yrotation
        JOINT RightLeg
        {
            OFFSET -0.000000 -36.073700 0.000000
            CHANNELS 3 Zrotation Xrotation Yrotation
            JOINT RightFoot
            {
                OFFSET -0.000000 -40.808823 0.000000
                CHANNELS 3 Zrotation Xrotation Yrotation
                JOINT RightToeBase
                {
                    OFFSET -0.000000 -6.152224 14.197442
                    CHANNELS 3 Zrotation Xrotation Yrotation
                    End Site
                    {
                        OFFSET -0.000000 0.000000 3.785984
                    }
                }
            }
        }
    }
}
MOTION
Frames:    10
Frame Time:    0.004000
-18.027651    80.676971    -90.942528    1.067999    -3.046304    20.293388    1.578884    -8.275085    -5.019848    -0.565172    11.723637    -5.076063    0.975371    23.883648    -3.973013    0.385519    13.981226    -4.058412    -12.759725    22.328667    -0.717022    -34.392200    33.394444    -24.330576    5.922660    -3.351962    -44.417572    10.649487    -0.353088    6.200723    11.851669    25.776758    -8.588043    42.856144    50.682652    19.225977    -3.819708    -16.338751    37.385941    -9.847796    -14.168917    -11.042442    4.691114    16.449783    0.606243    -0.392398    27.424736    -4.676970    -3.969529    12.148406    -4.362570    0.000000    0.000000    0.000000    -1.752335    -5.192227    -2.484284    2.516199    -7.522957    3.221783    0.476908    9.504704    -30.629360    0.000000    0.000000    0.000000    
-18.018024    80.742165    -90.489319    1.123630    -3.183149    20.126968    1.664977    -8.043572    -4.922823    -0.642262    11.603547    -4.974642    1.024692    23.925755    -3.996358    0.347543    14.052908    -4.079690    -12.770692    22.405298    -0.563759    -34.623318    33.484470    -24.122795    5.810789    -3.168353    -44.175072    10.548320    -0.236343    6.184453    11.830441    25.766682    -8.520537    42.890755    50.733425    19.160461    -3.848371    -16.355801    37.407478    -9.919996    -14.167128    -11.065799    4.701544    15.920656    0.910204    -0.318422    28.792061    -4.545855    -3.631877    12.825029    -4.489575    0.000000    0.000000    0.000000    -1.661253    -4.699609    -2.622935    2.598680    -7.605118    3.363564    0.346693    9.202486    -30.378075    0.000000    0.000000    0.000000    
-18.014593    80.808243    -90.043655    1.137136    -3.247136    20.003790    1.724774    -7.886929    -4.819843    -0.638515    11.478826    -4.874581    1.057328    23.962402    -4.034171    0.352631    14.096374    -4.116286    -12.825089    22.369720    -0.520110    -34.906441    33.727005    -23.766380    5.762927    -3.196223    -43.987194    10.388310    -0.277495    6.468912    11.838030    25.745626    -8.558050    42.806786    50.873470    19.175882    -3.911271    -16.441223    37.446056    -10.084105    -14.206543    -11.173345    4.715675    15.257183    1.199959    -0.205966    30.173031    -4.572845    -3.129733    13.506196    -4.554123    0.000000    0.000000    0.000000    -1.551646    -4.272596    -2.777799    2.674929    -7.726922    3.478980    0.212387    9.041325    -30.234890    0.000000    0.000000    0.000000    
-18.043129    80.872238    -89.588638    1.085945    -3.289028    19.960651    1.751250    -7.847176    -4.785118    -0.580768    11.464607    -4.846950    1.045557    24.008175    -4.051205    0.416097    14.097559    -4.133233    -12.853080    22.437523    -0.392196    -35.133255    33.851299    -23.557177    5.702987    -3.202649    -43.795494    10.173853    -0.313165    6.674613    11.825991    25.790146    -8.522076    42.743767    50.777596    19.229788    -3.860587    -16.392614    37.526890    -10.076456    -14.170040    -11.194457    4.855307    14.518053    1.441065    -0.013694    31.604940    -4.765265    -2.618120    14.190798    -4.721634    0.000000    0.000000    0.000000    -1.324826    -3.848795    -2.921306    2.660169    -7.927359    3.320591    0.190323    8.826858    -29.917250    0.000000    0.000000    0.000000    
-18.045639    80.958946    -89.100609    1.127179    -3.440886    19.811804    1.766955    -7.708814    -4.681745    -0.568542    11.462025    -4.743748    1.164277    24.029814    -4.104650    0.337756    14.122165    -4.181339    -12.865769    22.406559    -0.362862    -35.452492    34.071842    -23.167141    5.673233    -3.217464    -43.601875    10.093835    -0.351739    6.721687    11.819169    25.751848    -8.523232    42.717422    50.830284    19.215935    -3.850565    -16.508682    37.564880    -9.765411    -14.323039    -11.146435    4.909652    13.984673    1.799448    0.026323    32.909191    -4.280388    -2.323331    15.273900    -4.974093    0.000000    0.000000    0.000000    -1.162400    -3.264287    -2.973695    2.665492    -8.135457    3.252098    0.158743    8.662712    -29.694849    0.000000    0.000000    0.000000    
-18.056604    81.020836    -88.640854    1.170990    -3.582049    19.626581    1.768312    -7.515134    -4.556875    -0.500187    11.414423    -4.623056    1.103974    24.071930    -4.132522    0.440132    14.124625    -4.212491    -12.936942    22.444349    -0.295277    -35.639633    34.280994    -22.895378    5.632071    -3.259830    -43.426674    9.963072    -0.417440    6.847176    11.767275    25.725531    -8.514282    42.715290    50.863667    19.173559    -3.855569    -16.472126    37.688904    -9.820449    -14.264074    -11.272918    4.944464    13.410628    2.250198    0.218015    34.268360    -4.342603    -1.527351    16.082317    -5.269971    0.000000    0.000000    0.000000    -1.004351    -2.722520    -2.950732    2.656567    -8.324443    3.278300    0.058596    8.475673    -29.522318    0.000000    0.000000    0.000000    
-18.064135    81.072624    -88.215294    1.155810    -3.638989    19.515387    1.832084    -7.408486    -4.478129    -0.496506    11.353505    -4.547420    1.098083    24.072176    -4.148268    0.473212    14.180903    -4.228958    -12.973590    22.497324    -0.198143    -35.813339    34.515335    -22.685785    5.573694    -3.370452    -43.132107    9.852852    -0.600537    6.550544    11.744424    25.713585    -8.519146    42.682999    50.856197    19.200546    -3.910074    -16.526793    37.743282    -9.717325    -14.314380    -11.210567    4.989733    12.676800    2.678365    0.532629    35.711689    -5.117301    -1.535057    16.808022    -4.680113    0.000000    0.000000    0.000000    -0.860583    -2.320071    -3.048721    2.660406    -8.498438    3.391731    0.166965    8.295003    -29.383078    0.000000    0.000000    0.000000    
-18.090292    81.125435    -87.759804    1.114757    -3.690220    19.526985    1.872592    -7.370361    -4.445660    -0.495689    11.361914    -4.516966    1.205258    24.106604    -4.206957    0.459618    14.157534    -4.281735    -12.950809    22.473413    -0.183300    -36.084400    34.782276    -22.396206    5.586102    -3.491848    -42.815071    9.446969    -0.758669    6.547984    11.767622    25.596315    -8.488527    42.720726    50.940212    19.062365    -3.994731    -16.510975    37.846478    -9.499833    -14.293288    -11.136095    5.186120    11.885917    2.839561    0.580576    37.109558    -4.832840    -1.028206    17.651302    -5.078681    0.000000    0.000000    0.000000    -0.629714    -1.862386    -3.202556    2.607239    -8.686143    3.288853    0.019330    8.083848    -29.081800    0.000000    0.000000    0.000000    
-18.115402    81.177559    -87.316185    1.060079    -3.672533    19.545389    1.874168    -7.413661    -4.411039    -0.429317    11.389692    -4.489672    1.224733    24.067902    -4.234353    0.525834    14.253047    -4.308482    -12.936797    22.539368    -0.148814    -36.288597    34.886909    -22.182537    5.451364    -3.484122    -42.623478    9.390210    -0.811326    6.625461    11.755767    25.577358    -8.531220    42.674343    50.866703    19.080387    -3.947604    -16.479305    37.991215    -9.486547    -14.278317    -11.068056    5.332242    11.039599    3.075169    0.793016    38.506275    -5.211158    -0.509071    18.343031    -5.036072    0.000000    0.000000    0.000000    -0.425603    -1.500057    -3.382862    2.579628    -8.849964    3.336303    -0.412022    7.950085    -28.815765    0.000000    0.000000    0.000000    
-18.126726    81.214973    -86.882378    1.046432    -3.793316    19.468306    1.962234    -7.279154    -4.343371    -0.451663    11.387801    -4.423158    1.232437    24.096643    -4.282051    0.556982    14.220124    -4.356509    -12.969568    22.493441    -0.132182    -36.481712    35.036453    -21.848886    5.282428    -3.444593    -42.421768    9.395352    -0.845795    6.654898    11.730603    25.501223    -8.555285    42.585693    50.920311    19.160791    -3.928500    -16.468605    38.056965    -9.446033    -14.275932    -11.059816    5.452547    10.407154    3.273213    0.986998    39.788296    -5.516034    -0.446881    18.889166    -4.937018    0.000000    0.000000    0.000000    -0.108484    -1.102127    -3.701352    2.360691    -8.908274    3.049906    -0.513124    7.763377    -28.161030    0.000000    0.000000    0.000000    
